:SAMPLES-PER-SECOND 30
:FULLY-SPECIFIED
:DEGREES
164
root  -50.23 40.0997 -2.5121 -5.66187 -19.0911 1.78644
RightUpLeg  -4.90951 -18.4024 -7.99965
RightLeg  16.2061 -32.4859 -1.50746
RightFoot  -4.86591 0.11979 -2.69809
RightToes  5.82063e-011 0 -3.6325e-017
Spine  26.1654 -1.02942 7.21359
Spine1  5.77539 0.770737 -1.07502
HEad  -31.4542 33.5075 -32.5843
LeftShoulder1  1.42782 -1.64831 -21.3459
LeftArm  -14.1173 -18.7327 -40.3807
LeftForeArm  8.85213 -68.3773 -29.6883
LeftHand  0.0152006 2.92508 -1.6717
RightShoulder  0.378509 -2.00253 19.0712
RightArm  -12.9569 23.8338 28.0522
RightForeArm  -3.71698 71.1815 38.1142
RightHand  -0.244693 4.84542 -3.07825
LeftUpLeg  -12.3187 24.1076 4.17844
LeftLeg  18.4922 3.39028 1.62469
LeftFoot  -2.76366 0.0432829 -0.353116
LeftToes  1.68253e-010 -3.2327e-011 -2.69673e-012
165
root  -49.9919 40.2011 -2.63495 -5.34247 -13.0742 1.77185
RightUpLeg  -3.65441 -19.0753 -9.46541
RightLeg  15.4782 -37.1997 -1.46563
RightFoot  -4.60302 0.10423 -2.30005
RightToes  5.82063e-011 0 -3.6325e-017
Spine  24.9324 -0.964742 6.90442
Spine1  6.25801 0.749141 -1.17444
HEad  -32.2218 35.6153 -33.241
LeftShoulder1  1.33851 -1.1993 -22.0992
LeftArm  -13.411 -18.1693 -41.0317
LeftForeArm  10.8364 -69.0655 -30.7197
LeftHand  0.00858934 3.92541 -2.45392
RightShoulder  0.370919 -2.01449 18.7163
RightArm  -13.0843 24.0697 27.9572
RightForeArm  -3.67136 71.1798 38.1028
RightHand  -0.210356 4.8027 -2.69173
LeftUpLeg  -11.2401 30.7329 4.63803
LeftLeg  16.0146 7.36273 2.4815
LeftFoot  -2.75429 -0.042206 0.775911
LeftToes  1.68253e-010 -3.2327e-011 -2.69673e-012
166
root  -49.7464 40.284 -2.68066 -5.09183 -7.31708 1.59723
RightUpLeg  -2.03812 -19.5661 -10.7172
RightLeg  14.3565 -41.8279 -1.20196
RightFoot  -4.27029 0.101166 -2.10248
RightToes  5.82063e-011 0 -3.6325e-017
Spine  23.8249 -0.930608 6.72914
Spine1  6.76965 0.833721 -1.67402
HEad  -32.918 37.3488 -33.6667
LeftShoulder1  1.27858 -0.987794 -22.2345
LeftArm  -13.3013 -18.0667 -40.8574
LeftForeArm  10.8795 -69.118 -30.8224
LeftHand  0.00723276 4.00293 -2.25256
RightShoulder  0.369798 -2.00025 18.587
RightArm  -12.9802 24.4826 27.9865
RightForeArm  -4.09433 71.0411 37.7736
RightHand  -0.215593 4.94246 -2.72259
LeftUpLeg  -9.57628 33.4567 5.98604
LeftLeg  13.7209 18.6 2.97896
LeftFoot  -2.70919 -0.161958 2.36805
LeftToes  1.68253e-010 -3.2327e-011 -2.69673e-012
167
root  -49.4781 40.3465 -2.65493 -4.88052 -1.47314 1.21744
RightUpLeg  -0.370424 -20.5853 -11.8709
RightLeg  13.5913 -45.3613 -0.865601
RightFoot  -3.88271 0.132446 -2.43244
RightToes  5.82063e-011 0 -3.6325e-017
Spine  23.4754 -1.59745 6.48917
Spine1  6.11795 0.229352 -2.39656
HEad  -33.9576 40.3637 -34.3714
LeftShoulder1  0.943705 0.364377 -23.7294
LeftArm  -12.7678 -18.2085 -38.4637
LeftForeArm  9.56011 -69.1505 -31.0981
LeftHand  0.00782081 3.72501 -1.47508
RightShoulder  0.638387 -0.843211 17.5009
RightArm  -12.4013 24.4604 29.8334
RightForeArm  -4.62542 70.5464 36.4921
RightHand  -0.217325 4.83228 -2.73316
LeftUpLeg  -7.32788 29.0917 8.25758
LeftLeg  11.9809 37.076 2.06377
LeftFoot  -3.31056 -0.268727 4.13587
LeftToes  1.68253e-010 -3.2327e-011 -2.69673e-012
168
root  -49.1106 40.3546 -2.53943 -4.88977 4.41846 0.318909
RightUpLeg  1.20501 -21.5481 -12.6773
RightLeg  14.1835 -48.2239 -1.38925
RightFoot  -3.59249 0.14725 -2.53511
RightToes  5.82063e-011 0 -3.6325e-017
Spine  22.5713 -1.37727 7.06828
Spine1  6.57509 0.555137 -2.35913
HEad  -34.3425 41.2061 -33.9965
LeftShoulder1  1.03225 -0.0285202 -22.9164
LeftArm  -12.7715 -17.9053 -39.8343
LeftForeArm  9.91865 -69.074 -30.8846
LeftHand  0.0125715 3.33303 -1.65887
RightShoulder  0.558649 -1.19368 17.7903
RightArm  -12.6183 24.6655 28.9665
RightForeArm  -4.42547 70.3595 35.9857
RightHand  -0.0831875 3.95032 -1.31957
LeftUpLeg  -5.58886 27.5461 9.83514
LeftLeg  10.9004 48.9508 0.508746
LeftFoot  -4.02533 -0.360845 5.98987
LeftToes  1.68253e-010 -3.2327e-011 -2.69673e-012
169
root  -48.6264 40.2988 -2.37439 -4.83926 9.96913 -0.649017
RightUpLeg  2.29221 -23.3229 -13.4944
RightLeg  15.5683 -48.4281 -2.42045
RightFoot  -3.59072 0.0847699 -1.61963
RightToes  5.82063e-011 0 -3.6325e-017
Spine  21.3487 -1.26847 7.94155
Spine1  7.05968 0.868353 -2.67389
HEad  -34.6971 41.2014 -33.3953
LeftShoulder1  1.04604 -0.1586 -22.2127
LeftArm  -13.0161 -17.752 -40.6384
LeftForeArm  10.4157 -69.1101 -30.8802
LeftHand  0.0131209 3.51617 -2.1173
RightShoulder  0.482682 -1.51631 17.9397
RightArm  -12.464 25.1303 28.8377
RightForeArm  -6.43332 69.9991 35.3469
RightHand  -0.145988 4.01393 -2.06146
LeftUpLeg  -5.10186 28.931 9.91383
LeftLeg  11.4138 51.5621 0.600472
LeftFoot  -3.76625 -0.313953 5.16483
LeftToes  1.68253e-010 -3.2327e-011 -2.69673e-012
170
root  -48.0961 40.1778 -2.16134 -5.07568 15.4816 -1.51581
RightUpLeg  3.75789 -28.2714 -15.0284
RightLeg  16.7391 -43.507 -3.13325
RightFoot  -4.09413 -0.00246247 -0.375499
RightToes  5.82063e-011 0 -3.6325e-017
Spine  20.3436 -0.960508 7.89552
Spine1  7.32793 0.991648 -2.11948
HEad  -34.6064 41.2099 -32.6458
LeftShoulder1  1.0475 -0.115679 -22.6136
LeftArm  -12.9659 -17.8745 -40.355
LeftForeArm  10.3144 -69.0956 -30.8665
LeftHand  0.0116137 3.40715 -1.84354
RightShoulder  0.450471 -1.63657 17.7867
RightArm  -11.8317 25.5353 28.8785
RightForeArm  -8.41082 69.6607 34.7892
RightHand  -0.182569 4.62563 -2.39289
LeftUpLeg  -4.94986 29.614 9.55855
LeftLeg  11.3835 50.8265 0.0764452
LeftFoot  -2.45109 -0.298314 3.92412
LeftToes  1.68253e-010 -3.2327e-011 -2.69673e-012
171
root  -47.5533 40.0455 -1.95402 -5.31567 21.386 -1.70114
RightUpLeg  5.58923 -38.3197 -17.9885
RightLeg  17.7103 -31.8055 -4.34492
RightFoot  -5.89987 -0.130203 1.95395
RightToes  5.82063e-011 0 -3.6325e-017
Spine  19.6107 -0.633428 7.12351
Spine1  7.61118 1.06276 -1.78054
HEad  -33.9625 40.3892 -31.6876
LeftShoulder1  1.07975 -0.231845 -22.592
LeftArm  -12.7202 -17.793 -40.6518
LeftForeArm  10.2626 -69.1374 -30.9591
LeftHand  -0.00395393 3.7509 -1.27096
RightShoulder  0.442602 -1.64612 17.4566
RightArm  -12.4074 25.4971 28.6327
RightForeArm  -7.19432 69.2256 33.6505
RightHand  -0.0733528 3.53926 -1.21585
LeftUpLeg  -6.95304 29.6619 7.20011
LeftLeg  12.9794 44.6007 1.06457
LeftFoot  -1.80256 -0.639921 7.82875
LeftToes  1.68253e-010 -3.2327e-011 -2.69673e-012
172
root  -47.0389 39.8519 -1.74432 -6.00369 27.7544 -1.74951
RightUpLeg  6.92145 -44.9713 -20.3385
RightLeg  19.047 -18.5618 -5.84078
RightFoot  -8.76384 -0.148364 4.052
RightToes  5.82063e-011 0 -3.6325e-017
Spine  19.2579 -0.407901 6.56101
Spine1  8.13425 1.16141 -1.80025
HEad  -32.2771 37.7829 -29.3576
LeftShoulder1  1.13835 -0.520588 -21.9232
LeftArm  -12.5165 -18.4005 -41.5411
LeftForeArm  10.0256 -68.7277 -30.1855
LeftHand  -0.0047048 4.12955 -1.75068
RightShoulder  0.418534 -1.74254 17.3972
RightArm  -12.7114 25.3143 28.4333
RightForeArm  -7.63694 69.012 33.2351
RightHand  -0.0681177 3.69431 -1.08778
LeftUpLeg  -9.54245 33.2409 3.60597
LeftLeg  16.4459 34.729 4.75285
LeftFoot  -2.74889 -0.656292 8.9378
LeftToes  1.68253e-010 -3.2327e-011 -2.69673e-012
173
root  -46.5524 39.6626 -1.49901 -7.0126 33.1853 -1.61423
RightUpLeg  5.76335 -37.5427 -19.1951
RightLeg  21.2039 -13.2892 -5.98654
RightFoot  -11.3592 -0.0837416 4.15605
RightToes  5.82063e-011 0 -3.6325e-017
Spine  19.3305 0.248204 5.86948
Spine1  8.8765 1.6961 -1.72012
HEad  -28.8945 33.713 -24.3608
LeftShoulder1  1.12467 -0.429152 -22.2534
LeftArm  -12.0135 -19.8328 -41.8255
LeftForeArm  8.78541 -67.963 -28.9312
LeftHand  -0.00571229 3.88097 -1.3685
RightShoulder  0.357103 -1.9987 17.4917
RightArm  -12.9692 26.0187 28.0162
RightForeArm  -10.7644 68.271 32.1004
RightHand  -0.25255 4.87693 -3.16133
LeftUpLeg  -10.3621 35.2329 1.14811
LeftLeg  18.6098 27.2461 6.54329
LeftFoot  -4.06245 -0.588484 9.61299
LeftToes  1.68253e-010 -3.2327e-011 -2.69673e-012
174
root  -46.028 39.4908 -1.23806 -7.83047 38.3509 -0.927429
RightUpLeg  3.67738 -25.9396 -17.445
RightLeg  24.9333 -9.98621 -5.23658
RightFoot  -12.6149 -0.0721995 0.883218
RightToes  5.82063e-011 0 -3.6325e-017
Spine  19.4193 0.63897 5.22789
Spine1  9.81118 2.09542 -2.22317
HEad  -27.2217 31.6735 -23.2779
LeftShoulder1  1.09911 -0.31922 -22.4218
LeftArm  -12.2854 -20.2144 -41.6673
LeftForeArm  8.5655 -67.7786 -28.6412
LeftHand  -0.0118455 3.60855 -0.676706
RightShoulder  0.215915 -2.604 17.9967
RightArm  -11.8648 28.4862 28.3249
RightForeArm  -14.6185 66.5355 29.3392
RightHand  -0.32938 5.52322 -3.82311
LeftUpLeg  -9.68908 35.2289 -0.526333
LeftLeg  20.0248 22.398 7.04063
LeftFoot  -5.50782 -0.478582 10.0105
LeftToes  1.68253e-010 -3.2327e-011 -2.69673e-012
175
root  -45.5311 39.3176 -0.937761 -8.20227 44.0995 -0.00823975
RightUpLeg  1.61321 -15.6059 -15.8112
RightLeg  30.0107 -6.83067 -4.47687
RightFoot  -13.842 -0.0676269 1.17867
RightToes  5.82063e-011 0 -3.6325e-017
Spine  19.3036 0.731647 4.21754
Spine1  10.7786 1.97304 -2.3535
HEad  -26.2269 29.3647 -22.4031
LeftShoulder1  1.04024 -0.0748231 -22.7443
LeftArm  -12.8849 -20.2301 -41.132
LeftForeArm  8.05981 -67.5615 -28.3372
LeftHand  0.00017674 4.15853 -2.2433
RightShoulder  0.285864 -2.29145 17.3494
RightArm  -11.4199 29.8159 29.5522
RightForeArm  -14.6125 65.1104 27.1987
RightHand  -0.24181 5.27801 -2.93267
LeftUpLeg  -8.83489 33.2858 -2.07835
LeftLeg  21.3464 18.9607 7.2175
LeftFoot  -6.94542 -0.349115 10.1665
LeftToes  1.68253e-010 -3.2327e-011 -2.69673e-012
